name GIL08_free1.mot
datacolumns 153
datarows 4
range 0.14999999 0.17499998
endheader

                time	           pelvis_tx	           pelvis_ty	           pelvis_tz	         pelvis_tilt	         pelvis_list	     pelvis_rotation	       hip_flexion_r	     hip_adduction_r	      hip_rotation_r	        knee_angle_r	       ankle_angle_r	    subtalar_angle_r	         mtp_angle_r	       hip_flexion_l	     hip_adduction_l	      hip_rotation_l	        knee_angle_l	       ankle_angle_l	    subtalar_angle_l	         mtp_angle_l	    lumbar_extension	      lumbar_bending	     lumbar_rotation	     ground_force_vx	     ground_force_vy	     ground_force_vz	     ground_force_px	     ground_force_py	     ground_force_pz	     ground_force_vx	     ground_force_vy	     ground_force_vz	     ground_force_px	     ground_force_py	     ground_force_pz	     ground_torque_x	     ground_torque_y	     ground_torque_z	     ground_torque_x	     ground_torque_y	     ground_torque_z	    ground_marker_px	    ground_marker_py	    ground_marker_pz	    ground_marker_px	    ground_marker_py	    ground_marker_pz	    ground_marker_px	    ground_marker_py	    ground_marker_pz	    ground_marker_px	    ground_marker_py	    ground_marker_pz	    ground_marker_px	    ground_marker_py	    ground_marker_pz	    ground_marker_px	    ground_marker_py	    ground_marker_pz	    ground_marker_px	    ground_marker_py	    ground_marker_pz	    ground_marker_px	    ground_marker_py	    ground_marker_pz	    ground_marker_px	    ground_marker_py	    ground_marker_pz	    ground_marker_px	    ground_marker_py	    ground_marker_pz	    ground_marker_px	    ground_marker_py	    ground_marker_pz	    ground_marker_px	    ground_marker_py	    ground_marker_pz	    ground_marker_px	    ground_marker_py	    ground_marker_pz	    ground_marker_px	    ground_marker_py	    ground_marker_pz	    ground_marker_px	    ground_marker_py	    ground_marker_pz	    ground_marker_px	    ground_marker_py	    ground_marker_pz	    ground_marker_px	    ground_marker_py	    ground_marker_pz	    ground_marker_px	    ground_marker_py	    ground_marker_pz	    ground_marker_px	    ground_marker_py	    ground_marker_pz	    ground_marker_px	    ground_marker_py	    ground_marker_pz	    ground_marker_px	    ground_marker_py	    ground_marker_pz	    ground_marker_px	    ground_marker_py	    ground_marker_pz	    ground_marker_px	    ground_marker_py	    ground_marker_pz	    ground_marker_px	    ground_marker_py	    ground_marker_pz	    ground_marker_px	    ground_marker_py	    ground_marker_pz	    ground_marker_px	    ground_marker_py	    ground_marker_pz	    ground_marker_px	    ground_marker_py	    ground_marker_pz	    ground_marker_px	    ground_marker_py	    ground_marker_pz	    ground_marker_px	    ground_marker_py	    ground_marker_pz	    ground_marker_px	    ground_marker_py	    ground_marker_pz	    ground_marker_px	    ground_marker_py	    ground_marker_pz	    ground_marker_px	    ground_marker_py	    ground_marker_pz	    ground_marker_px	    ground_marker_py	    ground_marker_pz	    ground_marker_px	    ground_marker_py	    ground_marker_pz	    ground_marker_px	    ground_marker_py	    ground_marker_pz	    ground_marker_px	    ground_marker_py	    ground_marker_pz	    ground_marker_px	    ground_marker_py	    ground_marker_pz	
          0.14999999	          1.37378788	          0.96696138	         -0.23331988	          3.01099777	          5.60184526	         -3.74444175	        -10.16698551	         -8.54719353	          9.51674843	        -37.84237289	        -21.58399391	          0.00000000	          0.00000000	         16.18720818	          4.70520306	          9.31908131	        -17.24493217	         -1.41504741	          0.00000000	          0.00000000	        -18.51635742	         -8.21193790	          4.12005520	          0.00000000	          0.00000000	          0.00000000	          1.94790283	          0.00000000	         -0.15659389	        -72.38696254	        570.94134352	         17.36413273	          1.45259790	          0.00000000	         -0.28527222	          0.00000000	          0.00000000	          0.00000000	          0.00000000	          0.93820056	          0.00000000	          1.29337931	          0.88307023	         -0.24195579	          1.28865576	          0.86846727	         -0.19502884	          1.29715180	          0.87763298	         -0.30086344	          1.23280561	          0.45727032	         -0.17293230	          1.43039036	          0.48383412	         -0.28992134	          0.93413353	          0.16631201	         -0.15540934	          1.43653834	          0.06805271	         -0.27938583	          1.37378788	          0.96696138	         -0.23331988	          1.36558318	          0.95811009	         -0.13111547	          1.38199258	          0.97581273	         -0.33552429	          1.17317641	          0.99742454	         -0.20523159	          1.17675042	          1.00228572	         -0.29045373	          1.23899019	          0.45960787	         -0.11380077	          1.44570482	          0.48742118	         -0.34730473	          1.24775147	          0.45948768	         -0.22840327	          1.40758121	          0.48073310	         -0.24635498	          0.92843723	          0.17436936	         -0.11871285	          1.43943453	          0.06709763	         -0.31876794	          0.93662059	          0.17538066	         -0.18609975	          1.44206607	          0.07612112	         -0.24927710	          1.23055696	          1.45134473	         -0.25132766	          1.33399880	          1.38474286	         -0.16740511	          1.32969797	          1.37959516	         -0.32425264	          1.31938720	          1.38300002	         -0.24948007	          1.36283612	          1.18268597	         -0.25084850	          1.28212047	          0.56230676	         -0.03365455	          1.53088975	          0.64999509	         -0.27776292	          1.31246519	          0.61745948	         -0.10453963	          1.45426869	          0.68366230	         -0.33754778	          1.30598056	          0.53469938	         -0.12295745	          1.46854103	          0.59760118	         -0.32899815	          0.98887646	          0.22962788	         -0.05289177	          1.53760934	          0.18406454	         -0.26230332	          1.02388883	          0.27328297	         -0.11734395	          1.47194481	          0.22934978	         -0.28419012	          0.95914197	          0.05211240	         -0.18557099	          1.56490934	          0.04274290	         -0.27640915	
          0.15833332	          1.38357055	          0.96843755	         -0.23361523	          3.02067661	          5.67780542	         -3.78586388	         -8.86336327	         -8.67092991	          9.14628315	        -39.95719528	        -22.40309906	          0.00000000	          0.00000000	         15.35136032	          4.79128361	          9.37654686	        -16.91928291	         -0.91994625	          0.00000000	          0.00000000	        -18.45901108	         -8.32349205	          4.27681494	          0.00000000	          0.00000000	          0.00000000	          1.95125464	          0.00000000	         -0.15753586	        -68.39021080	        578.78701025	         17.19966843	          1.45210840	          0.00000000	         -0.28530533	          0.00000000	          0.00000000	          0.00000000	          0.00000000	          0.95877124	          0.00000000	          1.30388927	          0.88561159	         -0.24322164	          1.29841304	          0.86988932	         -0.19552028	          1.30700541	          0.87918264	         -0.30133599	          1.25169003	          0.45675981	         -0.17237249	          1.43435371	          0.48393458	         -0.29076427	          0.94947457	          0.17053781	         -0.15306936	          1.43656743	          0.06810515	         -0.27953824	          1.38357055	          0.96843755	         -0.23361523	          1.37529194	          0.95948368	         -0.13166374	          1.39184916	          0.97739142	         -0.33556673	          1.18262696	          0.99866450	         -0.20597416	          1.18631816	          1.00413656	         -0.29111201	          1.25728261	          0.45944297	         -0.11319671	          1.44978118	          0.48737097	         -0.34812662	          1.26656699	          0.45873618	         -0.22796677	          1.41121578	          0.48126689	         -0.24723710	          0.94439769	          0.17838241	         -0.11623613	          1.43946910	          0.06705748	         -0.31891757	          0.95062870	          0.18090759	         -0.18346860	          1.44212663	          0.07616664	         -0.24934548	          1.24009871	          1.45277369	         -0.25189382	          1.34353721	          1.38644779	         -0.16828118	          1.33890641	          1.38129461	         -0.32505035	          1.32875180	          1.38468921	         -0.25029019	          1.37240398	          1.18441987	         -0.25174811	          1.29721606	          0.56286764	         -0.03322698	          1.53688478	          0.64880180	         -0.27832413	          1.32719243	          0.61819494	         -0.10395930	          1.46095037	          0.68352604	         -0.33829471	          1.32240093	          0.53530467	         -0.12219016	          1.47401273	          0.59728885	         -0.32970476	          1.00653064	          0.23220359	         -0.05086916	          1.53869247	          0.18313651	         -0.26261327	          1.04065371	          0.27609757	         -0.11506973	          1.47389412	          0.22931604	         -0.28439346	          0.97085100	          0.05615506	         -0.18523227	          1.56485975	          0.04270491	         -0.27645418	
          0.16666666	          1.39319706	          0.96976578	         -0.23377922	          3.00229740	          5.71061945	         -3.80273271	         -7.50156927	         -8.69894695	          8.80193043	        -42.05792236	        -21.94792747	          0.00000000	          0.00000000	         14.55570984	          4.83010387	          9.38165092	        -16.60762024	         -0.43567994	          0.00000000	          0.00000000	        -18.43030548	         -8.42496300	          4.39571142	          0.00000000	          0.00000000	          0.00000000	          1.95497363	          0.00000000	         -0.15849136	        -63.42277368	        585.00886241	         16.65825623	          1.45151733	          0.00000000	         -0.28532004	          0.00000000	          0.00000000	          0.00000000	          0.00000000	          0.98513397	          0.00000000	          1.31392145	          0.88773572	         -0.24465105	          1.30799067	          0.87122762	         -0.19576776	          1.31662643	          0.88057280	         -0.30157536	          1.27075875	          0.45657051	         -0.17190631	          1.43819225	          0.48406902	         -0.29149178	          0.96518224	          0.17476884	         -0.15126465	          1.43655753	          0.06818938	         -0.27964303	          1.39319706	          0.96976578	         -0.23377922	          1.38489282	          0.96077913	         -0.13203166	          1.40150142	          0.97875237	         -0.33552676	          1.19201922	          0.99986047	         -0.20670079	          1.19571364	          1.00592756	         -0.29178360	          1.27578878	          0.45952627	         -0.11269304	          1.45363581	          0.48734504	         -0.34885913	          1.28567517	          0.45869541	         -0.22786956	          1.41455448	          0.48185319	         -0.24808168	          0.96080989	          0.18222065	         -0.11425988	          1.43944812	          0.06705610	         -0.31902081	          0.96545005	          0.18611196	         -0.18150578	          1.44209814	          0.07624481	         -0.24942666	          1.24968922	          1.45422280	         -0.25227755	          1.35297596	          1.38818622	         -0.16904199	          1.34802461	          1.38292813	         -0.32579133	          1.33802283	          1.38637078	         -0.25101602	          1.38170469	          1.18610764	         -0.25243026	          1.31250417	          0.56359047	         -0.03289194	          1.54266059	          0.64755851	         -0.27898225	          1.34218550	          0.61922854	         -0.10343767	          1.46740758	          0.68337679	         -0.33899763	          1.33907247	          0.53642386	         -0.12159814	          1.47918010	          0.59696746	         -0.33041829	          1.02479279	          0.23437074	         -0.04927721	          1.53965259	          0.18224393	         -0.26290795	          1.05747151	          0.27880317	         -0.11323863	          1.47483778	          0.22889625	         -0.28483000	          0.98522764	          0.06064003	         -0.18492393	          1.56476676	          0.04270193	         -0.27646717	
          0.17499998	          1.40268433	          0.97096586	         -0.23388171	          2.96061325	          5.70445585	         -3.79272199	         -6.09470797	         -8.65127182	          8.50043583	        -44.10159302	        -20.52148438	          0.00000000	          0.00000000	         13.78939819	          4.83548689	          9.34775734	        -16.29932022	          0.03331902	          0.00000000	          0.00000000	        -18.13508987	         -8.44186306	          4.50600195	          0.00000000	          0.00000000	          0.00000000	          1.95900757	          0.00000000	         -0.15944870	        -58.06533174	        587.91517617	         15.81005796	          1.45090723	          0.00000000	         -0.28531790	          0.00000000	          0.00000000	          0.00000000	          0.00000000	          0.99822729	          0.00000000	          1.32377625	          0.88965869	         -0.24600589	          1.31741512	          0.87249124	         -0.19584642	          1.32603753	          0.88182199	         -0.30165637	          1.28995895	          0.45672059	         -0.17151390	          1.44189525	          0.48419094	         -0.29210767	          0.98134500	          0.17881694	         -0.15003218	          1.43653727	          0.06827881	         -0.27971187	          1.40268433	          0.97096586	         -0.23388171	          1.39440334	          0.96200454	         -0.13226081	          1.41096532	          0.97992718	         -0.33550262	          1.20138574	          1.00101292	         -0.20735686	          1.20505285	          1.00762224	         -0.29241818	          1.29448533	          0.45988879	         -0.11227097	          1.45727456	          0.48729372	         -0.34950191	          1.30385530	          0.45890594	         -0.22770961	          1.41780889	          0.48240104	         -0.24878074	          0.97767901	          0.18576197	         -0.11285252	          1.43940306	          0.06706829	         -0.31908917	          0.98140961	          0.19055025	         -0.18031044	          1.44210148	          0.07634594	         -0.24943607	          1.25832486	          1.45556593	         -0.25287470	          1.36224246	          1.38984287	         -0.16969934	          1.35705161	          1.38451993	         -0.32645997	          1.34716022	          1.38794184	         -0.25165847	          1.39167678	          1.18786263	         -0.25309116	          1.32802022	          0.56451130	         -0.03264353	          1.54827797	          0.64624262	         -0.27971855	          1.35716331	          0.62040997	         -0.10309901	          1.47357643	          0.68315434	         -0.33967665	          1.35546303	          0.53752631	         -0.12122427	          1.48408842	          0.59656549	         -0.33111453	          1.04350805	          0.23619129	         -0.04816299	          1.54052579	          0.18138930	         -0.26318699	          1.07503319	          0.28104866	         -0.11185370	          1.47562504	          0.22845095	         -0.28522590	          1.00201452	          0.06515856	         -0.18451129	          1.56465030	          0.04271109	         -0.27646944	
